<svg xmlns="http://www.w3.org/2000/svg" width="108" height="23" viewBox="0 0 108 23" fill="none"><path d="M41.7 14.5V3.5H45V14.5H41.7ZM44.4 10.6V8.4H46.5C46.7 8.4 47 8.4 47.2 8.3C47.4 8.2 47.6 8.1 47.7 7.9C47.8 7.7 47.9 7.4 47.9 7.2C47.9 6.9 47.8 6.7 47.7 6.5C47.6 6.3 47.4 6.2 47.2 6.1C47 6 46.8 6 46.5 6H44.4V3.8H47.0999C47.7999 3.8 48.4999 3.9 49.0999 4.2C49.6999 4.5 50.2 4.9 50.5 5.4C50.9 5.9 51 6.6 51 7.3C51 8 50.8 8.7 50.5 9.2C50.1 9.7 49.6999 10.1 49.0999 10.4C48.4999 10.7 47.7999 10.8 47.0999 10.8H44.4V10.6Z" fill="white"></path><path d="M58.1 14.7C57.2 14.7 56.4 14.6 55.6 14.3C54.8 14 54.2 13.6 53.6 13.1C53 12.6 52.6 12 52.3 11.3C52 10.6 51.8 9.8 51.8 9C51.8 8.2 52 7.4 52.3 6.7C52.6 6 53 5.4 53.6 4.9C54.2 4.4 54.8 4 55.6 3.7C56.4 3.4 57.2 3.3 58.1 3.3C59 3.3 59.8 3.4 60.6 3.7C61.4 4 62 4.4 62.6 4.9C63.2 5.4 63.6001 6 63.9001 6.7C64.2001 7.4 64.4001 8.2 64.4001 9C64.4001 9.8 64.2001 10.6 63.9001 11.3C63.6001 12 63.2 12.6 62.6 13.1C62 13.6 61.4 14 60.6 14.3C59.8 14.6 58.9 14.7 58.1 14.7ZM58 12C58.6 12 59.1 11.9 59.6 11.6C60 11.4 60.4 11 60.6 10.6C60.8 10.1 61 9.6 61 9C61 8.5 60.9001 8.1 60.8001 7.8C60.7001 7.4 60.5 7.1 60.2 6.9C59.9 6.6 59.6001 6.4 59.3001 6.3C58.9001 6.1 58.5 6 58 6C57.4 6 56.9001 6.1 56.4001 6.4C56.0001 6.6 55.6001 7 55.4001 7.4C55.2001 7.8 55 8.4 55 9C55 9.5 55.1001 9.9 55.2001 10.3C55.3001 10.7 55.5 11 55.8 11.2C56.1 11.5 56.4001 11.7 56.7001 11.8C57.2001 11.9 57.6 12 58 12Z" fill="white"></path><path d="M65.5999 14.5V3.5H68.8999V14.5H65.5999ZM68.2999 10.1V8H70.2999C70.6999 8 71.0999 7.9 71.2999 7.7C71.4999 7.5 71.5999 7.2 71.5999 6.9C71.5999 6.6 71.4999 6.3 71.2999 6.1C71.0999 5.9 70.6999 5.8 70.2999 5.8H68.2999V3.6H70.7999C71.5999 3.6 72.2999 3.7 72.8999 4C73.4999 4.3 73.9999 4.7 74.2999 5.2C74.5999 5.7 74.7999 6.3 74.7999 6.9C74.7999 7.6 74.5999 8.1 74.2999 8.6C73.8999 9.1 73.4999 9.5 72.7999 9.8C72.1999 10.1 71.3999 10.2 70.5999 10.2H68.2999V10.1ZM71.8999 14.5L68.6999 9.8L71.5999 9.2L75.4999 14.5H71.8999Z" fill="white"></path><path d="M75.3999 6.1V3.5H85.5999V6.1H75.3999ZM78.8999 14.5V3.5H82.1999V14.5H78.8999Z" fill="white"></path><path d="M86 14.5L90.4 3.5H93.7L98.1 14.5H94.7L91.5 5.2H92.7L89.4 14.5H86ZM88.9 12.6V10.2H95.4V12.6H88.9Z" fill="white"></path><path d="M99.0999 14.5V3.5H102.4V14.5H99.0999ZM101.8 14.5V11.9H107.2V14.5H101.8Z" fill="white"></path><path d="M41.8 20.6V16.3H42.5V20.6H41.8Z" fill="white"></path><path d="M43.8 20.6V17.6H44.5V20.6H43.8ZM45.9001 20.6V18.9C45.9001 18.7 45.8001 18.5 45.7001 18.4C45.6001 18.3 45.4001 18.2 45.2001 18.2C45.1001 18.2 44.9 18.2 44.8 18.3C44.7 18.4 44.6 18.4 44.5 18.5C44.4 18.6 44.4001 18.7 44.4001 18.9L44.1 18.8C44.1 18.6 44.2 18.4 44.3 18.2C44.4 18 44.5001 17.9 44.7001 17.8C44.9001 17.7 45.1 17.6 45.3 17.6C45.5 17.6 45.7001 17.7 45.9001 17.8C46.1001 17.9 46.2 18.1 46.3 18.2C46.4 18.4 46.5 18.6 46.5 18.8V20.7H45.9001V20.6Z" fill="white"></path><path d="M48.7001 20.6L47.3 17.6H48.1L49.2001 20H48.7001L49.8 17.6H50.6L49.2001 20.6H48.7001Z" fill="white"></path><path d="M52.7001 20.7C52.4001 20.7 52.1001 20.6 51.9001 20.5C51.7001 20.4 51.5001 20.2 51.3001 19.9C51.2001 19.7 51.1001 19.4 51.1001 19.1C51.1001 18.8 51.2001 18.5 51.3001 18.3C51.4001 18.1 51.6001 17.9 51.9001 17.7C52.1001 17.6 52.4001 17.5 52.7001 17.5C53.0001 17.5 53.2001 17.6 53.5001 17.7C53.7001 17.8 53.9001 18 54.0001 18.2C54.1001 18.4 54.2001 18.7 54.2001 19C54.2001 19 54.2001 19.1 54.2001 19.2C54.2001 19.3 54.2001 19.3 54.2001 19.4H51.6001V18.8H53.8001L53.5001 19C53.5001 18.8 53.5001 18.7 53.4001 18.5C53.3001 18.4 53.2001 18.3 53.1001 18.2C53.0001 18.1 52.8001 18.1 52.7001 18.1C52.5001 18.1 52.4001 18.1 52.2001 18.2C52.1001 18.3 52.0001 18.4 51.9001 18.5C51.8001 18.6 51.8001 18.8 51.8001 19C51.8001 19.2 51.8001 19.3 51.9001 19.5C52.0001 19.6 52.1001 19.7 52.2001 19.8C52.3001 19.9 52.5001 19.9 52.7001 19.9C52.9001 19.9 53.0001 19.9 53.1001 19.8C53.2001 19.7 53.4001 19.7 53.4001 19.6L53.9001 20C53.7001 20.2 53.6001 20.3 53.3001 20.4C53.2001 20.6 53.0001 20.7 52.7001 20.7Z" fill="white"></path><path d="M56.1 20.7C55.9 20.7 55.8 20.7 55.6 20.6C55.4 20.6 55.3001 20.5 55.2001 20.4C55.1001 20.3 54.9 20.2 54.8 20.1L55.3 19.7C55.4 19.8 55.5001 19.9 55.7001 20C55.8001 20.1 56.0001 20.1 56.2001 20.1C56.4001 20.1 56.5 20.1 56.6 20C56.7 20 56.7001 19.9 56.7001 19.8C56.7001 19.7 56.7 19.6 56.6 19.6C56.5 19.6 56.4 19.5 56.3 19.5C56.2 19.5 56.0001 19.4 55.9001 19.4C55.8001 19.4 55.6 19.3 55.5 19.2C55.4 19.1 55.3001 19 55.2001 18.9C55.0001 18.8 55 18.7 55 18.5C55 18.3 55 18.1 55.1 18C55.2 17.9 55.3 17.8 55.5 17.7C55.7 17.6 55.9 17.6 56.1 17.6C56.4 17.6 56.6 17.6 56.8 17.7C57 17.8 57.2 17.9 57.3 18.1L56.8 18.5C56.7 18.4 56.6 18.3 56.5 18.3C56.4 18.2 56.2 18.2 56.1 18.2C56 18.2 55.8 18.2 55.8 18.3C55.7 18.3 55.7001 18.4 55.7001 18.5C55.7001 18.6 55.7 18.6 55.8 18.7C55.9 18.7 56 18.8 56.1 18.8C56.2 18.8 56.4 18.9 56.5 18.9C56.6 18.9 56.8001 19 56.9001 19.1C57.0001 19.2 57.1001 19.3 57.2001 19.4C57.3001 19.5 57.3 19.7 57.3 19.8C57.3 20.1 57.2 20.3 57 20.5C56.8 20.6 56.5 20.7 56.1 20.7Z" fill="white"></path><path d="M57.9001 18.3V17.7H60.1001V18.3H57.9001ZM58.7001 20.6V16.4H59.4001V20.6H58.7001Z" fill="white"></path><path d="M62.2 16.9V16.3H66V16.9H62.2ZM63.7 20.6V16.4H64.4V20.6H63.7Z" fill="white"></path><path d="M66.8 20.6V17.6H67.5V20.6H66.8ZM67.5 19L67.3 18.9C67.3 18.5 67.4 18.2 67.6 18C67.8 17.8 68 17.7 68.4 17.7C68.6 17.7 68.7 17.7 68.8 17.8C68.9 17.9 69 17.9 69.2 18.1L68.7 18.6C68.6 18.5 68.6 18.5 68.5 18.5C68.4 18.5 68.4 18.5 68.3 18.5C68.1 18.5 67.9 18.6 67.8 18.7C67.6 18.5 67.5 18.7 67.5 19Z" fill="white"></path><path d="M71 20.7C70.7 20.7 70.5 20.6 70.2 20.5C70 20.4 69.8 20.2 69.7 19.9C69.6 19.7 69.5 19.4 69.5 19.1C69.5 18.8 69.6 18.5 69.7 18.3C69.8 18.1 70 17.9 70.2 17.7C70.4 17.6 70.7 17.5 71 17.5C71.2 17.5 71.4 17.5 71.6 17.6C71.8 17.7 71.9 17.8 72 18C72.1 18.2 72.2 18.4 72.2 18.6V19.5C72.2 19.7 72.1 19.9 72 20.1C71.9 20.3 71.7 20.4 71.6 20.5C71.5 20.6 71.2 20.7 71 20.7ZM71.1 20C71.4 20 71.6 19.9 71.7 19.7C71.9 19.5 71.9 19.3 71.9 19.1C71.9 18.9 71.9 18.8 71.8 18.6C71.7 18.5 71.6 18.4 71.5 18.3C71.4 18.2 71.2 18.2 71 18.2C70.8 18.2 70.7 18.2 70.5 18.3C70.4 18.4 70.3 18.5 70.2 18.6C70.1 18.7 70.1 18.9 70.1 19.1C70.1 19.3 70.1 19.4 70.2 19.6C70.3 19.7 70.4 19.8 70.5 19.9C70.8 20 70.9 20 71.1 20ZM72 20.6V19.8L72.1 19.1L72 18.4V17.7H72.7V20.7H72V20.6Z" fill="white"></path><path d="M75.1001 20.7C74.8001 20.7 74.6001 20.6 74.3001 20.5C74.1001 20.4 73.9001 20.2 73.8001 19.9C73.7001 19.7 73.6001 19.4 73.6001 19.1C73.6001 18.8 73.7001 18.5 73.8001 18.3C73.9001 18.1 74.1001 17.9 74.3001 17.7C74.5001 17.6 74.8001 17.5 75.1001 17.5C75.3001 17.5 75.5001 17.5 75.7001 17.6C75.9001 17.7 76.0001 17.8 76.1001 18C76.2001 18.2 76.3001 18.4 76.3001 18.6V19.5C76.3001 19.7 76.2001 19.9 76.1001 20.1C76.0001 20.3 75.8001 20.4 75.7001 20.5C75.5001 20.6 75.3001 20.7 75.1001 20.7ZM75.2001 20C75.4001 20 75.5001 20 75.7001 19.9C75.8001 19.8 75.9001 19.7 76.0001 19.6C76.1001 19.5 76.1001 19.3 76.1001 19.1C76.1001 18.9 76.1001 18.8 76.0001 18.6C75.9001 18.5 75.8001 18.4 75.7001 18.3C75.6001 18.2 75.4001 18.2 75.2001 18.2C75.0001 18.2 74.9001 18.2 74.7001 18.3C74.6001 18.4 74.5001 18.5 74.4001 18.6C74.3001 18.7 74.3001 18.9 74.3001 19.1C74.3001 19.3 74.3001 19.4 74.4001 19.6C74.5001 19.7 74.6001 19.8 74.7001 19.9C74.9001 20 75.0001 20 75.2001 20ZM76.8001 20.6H76.0001V19.8L76.1001 19.1L76.0001 18.4V16.2H76.7001V20.6H76.8001Z" fill="white"></path><path d="M79.3 20.7C79 20.7 78.7 20.6 78.5 20.5C78.3 20.4 78.1 20.2 77.9 19.9C77.8 19.7 77.7 19.4 77.7 19.1C77.7 18.8 77.8 18.5 77.9 18.3C78 18.1 78.2 17.9 78.5 17.7C78.7 17.6 79 17.5 79.3 17.5C79.6 17.5 79.8 17.6 80.1 17.7C80.3 17.8 80.5 18 80.6 18.2C80.7 18.4 80.8 18.7 80.8 19C80.8 19 80.8 19.1 80.8 19.2C80.8 19.3 80.8 19.3 80.8 19.4H78.2V18.8H80.4L80.1 19C80.1 18.8 80.1 18.7 80 18.5C79.9 18.4 79.8 18.3 79.7 18.2C79.6 18.1 79.4 18.1 79.3 18.1C79.1 18.1 79 18.1 78.8 18.2C78.7 18.3 78.6 18.4 78.5 18.5C78.4 18.6 78.4 18.8 78.4 19C78.4 19.2 78.4 19.3 78.5 19.5C78.6 19.6 78.7 19.7 78.8 19.8C78.9 19.9 79.1 19.9 79.3 19.9C79.5 19.9 79.6 19.9 79.7 19.8C79.8 19.7 80 19.7 80 19.6L80.5 20C80.3 20.2 80.2 20.3 79.9 20.4C79.8 20.6 79.6 20.7 79.3 20.7Z" fill="white"></path><path d="M35.2001 19.7C35.2001 20.6 32.4 21.4 28.1 21.8C27.8 21.8 27.5001 21.9 27.2001 21.9C25.2001 22.1 22.8 22.2 20.3 22.3C19.6 22.3 18.8 22.3 18 22.3C17.3 22.3 16.7 22.3 16 22.3C15.3 22.3 14.5 22.3 13.8 22.2C12.2 22.1 10.7 22 9.40005 21.9C8.40005 21.8 7.40005 21.7 6.50005 21.6C4.90005 21.4 3.60005 21.1 2.70005 20.8C1.50005 20.4 0.800049 20 0.800049 19.6C0.800049 19 2.10005 18.5 4.30005 18C6.00005 17.7 8.30005 17.4 11 17.2C13.1 17.1 15.5 17 18 17C18.3 17 18.7 17 19 17C20.5 17 21.9001 17.1 23.2001 17.1C23.6001 17.1 24.1 17.1 24.5 17.2C26.7 17.3 28.7 17.5 30.3 17.8C33.4 18.3 35.2001 19 35.2001 19.7Z" fill="#37F935"></path><path d="M13.8 22.2C12.2 22.1 10.7 22 9.39995 21.9L7.89995 19.2L6.49995 21.6C4.89995 21.4 3.59995 21.1 2.69995 20.8L4.29995 18L7.89995 11.8L11 17.2L13.8 22.2Z" fill="white"></path><path d="M38.1001 13.4L34.4001 11.3C34.3001 11.3 34.3001 11.2 34.2001 11.2L30.4001 17.8L28.1001 21.8C27.8001 21.8 27.5001 21.9 27.2001 21.9L24.6001 17.2L23.9001 16L23.3001 17.1L20.4001 22.2C19.7001 22.2 18.9001 22.2 18.1001 22.2C17.4001 22.2 16.8001 22.2 16.1001 22.2L19.1001 17L24.0001 8.5L27.7001 15.1L31.0001 9.3C30.9001 9.3 30.9001 9.2 30.8001 9.2L27.1001 7.1L38.1001 0.599998V13.4Z" fill="white"></path></svg>